<?xml version="1.0" encoding="UTF-8" standalone="no"?>
<!-- Created with Inkscape (http://www.inkscape.org/) -->

<svg
   width="240mm"
   height="240mm"
   viewBox="0 0 240 240"
   version="1.1"
   id="svg2585"
   xmlns="http://www.w3.org/2000/svg"
   xmlns:svg="http://www.w3.org/2000/svg">
  <defs
     id="defs2582" />
  <g
     id="layer1">
    <path
       id="path2760"
       style="display:inline;fill:#000000;stroke-width:0.665001;stroke-miterlimit:6.6;paint-order:stroke fill markers"
       d="M 119.99991,30.000236 A 90,90 0 0 0 30.000236,119.99991 90,90 0 0 0 119.99991,210.0001 90,90 0 0 0 210.0001,119.99991 90,90 0 0 0 119.99991,30.000236 Z m 0,59.999955 a 30,30 0 0 1 30.00024,29.999719 30,30 0 0 1 -30.00024,30.00024 30,30 0 0 1 -29.999719,-30.00024 30,30 0 0 1 29.999719,-29.999719 z" />
    <path
       id="rect3335"
       style="stroke-width:0.665001;stroke-miterlimit:6.6;paint-order:stroke fill markers"
       d="m 154.0192,1.0769394 -20.00007,34.6411396 51.96153,30.000003 20.00007,-34.64114 z M 54.019097,174.28219 l -19.99981,34.64069 51.961529,30 19.999814,-34.64068 z" />
    <path
       id="rect3335-3"
       style="stroke:none;stroke-width:0.665;stroke-linejoin:bevel;stroke-miterlimit:6.6;stroke-dasharray:none;stroke-opacity:1;paint-order:stroke fill markers"
       d="m 239.99982,90.000064 -40.00014,-10e-7 v 59.999997 h 40.00014 z M 39.999622,90.000062 2.0027884e-6,90.000061 -1.3166911e-6,150.00007 H 39.999619 Z" />
    <path
       id="rect3335-33"
       style="stroke-width:0.665001;stroke-miterlimit:6.6;paint-order:stroke fill markers"
       d="m 205.98073,208.92288 -20.00007,-34.64114 -51.96154,30 20.00007,34.64114 z M 105.98063,35.717622 85.980817,1.0769347 34.019279,31.076943 54.019091,65.717626 Z" />
  </g>
</svg>
